<svg width="83" height="87" viewBox="0 0 83 87" fill="none" xmlns="http://www.w3.org/2000/svg">
<path d="M2.99993 53.283H7.31162C7.31162 53.283 7.43733 62.3952 11.6352 69.4978C15.833 76.6004 27.0975 82.3203 27.0975 82.3203C27.0975 82.3203 17.2293 81.4403 10.6295 74.1491C4.02969 66.8579 2.20679 57.3668 2.20679 57.3668L2.99993 53.283Z" fill="#D3D8E8"/>
<path d="M48.154 53.4698H43.0627C43.0627 53.4698 42.7485 57.1468 40.4228 59.8181C38.0971 62.4895 33.0059 64.5951 33.0059 64.5951C33.0059 64.5951 39.3543 64.5951 43.0627 61.2638C46.7711 57.9325 48.154 53.4698 48.154 53.4698Z" fill="#D3D8E8"/>
<path d="M15.0691 63.6489H16.9722V71.2224H15.0691V63.6489Z" fill="#D3D8E8"/>
<path d="M44.5889 63.6489H46.7768V71.2224H44.5889V63.6489Z" fill="#D3D8E8"/>
<path d="M30 48C2.00001 41.9474 1.99997 5.63158 30 2C21.5377 6.16157 14.6503 14.7867 14.5 24C14.3442 33.5466 21.2316 43.6879 30 48Z" fill="#D3D8E8"/>
<path d="M42.6823 53.283C42.6823 59.19 37.8983 63.9811 32 63.9811C26.1017 63.9811 21.3177 59.19 21.3177 53.283H2C2 68.372 13.1062 80.8652 27.5793 83V80.5377C27.5793 78.0876 29.5656 76.1105 32 76.1105C34.4344 76.1105 36.4207 78.0997 36.4207 80.5377V83C50.8938 80.8531 62 68.372 62 53.283H42.6823Z" stroke="#334DA6" stroke-width="2" stroke-miterlimit="10" stroke-linecap="round" stroke-linejoin="round"/>
<path d="M4.36182 53.283V48.88" stroke="#334DA6" stroke-miterlimit="10" stroke-linecap="round" stroke-linejoin="round"/>
<path d="M7.99512 53.283V48.88" stroke="#334DA6" stroke-miterlimit="10" stroke-linecap="round" stroke-linejoin="round"/>
<path d="M11.6284 53.283V48.88" stroke="#334DA6" stroke-miterlimit="10" stroke-linecap="round" stroke-linejoin="round"/>
<path d="M15.2617 53.283V48.88" stroke="#334DA6" stroke-miterlimit="10" stroke-linecap="round" stroke-linejoin="round"/>
<path d="M18.8955 53.283V48.88" stroke="#334DA6" stroke-miterlimit="10" stroke-linecap="round" stroke-linejoin="round"/>
<path d="M45.1895 53.283V48.88" stroke="#334DA6" stroke-miterlimit="10" stroke-linecap="round" stroke-linejoin="round"/>
<path d="M48.8228 53.283V48.88" stroke="#334DA6" stroke-miterlimit="10" stroke-linecap="round" stroke-linejoin="round"/>
<path d="M52.4563 53.283V48.88" stroke="#334DA6" stroke-miterlimit="10" stroke-linecap="round" stroke-linejoin="round"/>
<path d="M56.0896 53.283V48.88" stroke="#334DA6" stroke-miterlimit="10" stroke-linecap="round" stroke-linejoin="round"/>
<path d="M59.7229 53.283V48.88" stroke="#334DA6" stroke-miterlimit="10" stroke-linecap="round" stroke-linejoin="round"/>
<path d="M22.3108 71.2224H25.3144" stroke="#334DA6" stroke-miterlimit="10" stroke-linecap="round" stroke-linejoin="round"/>
<path d="M29.9409 71.2224H32.9324" stroke="#334DA6" stroke-miterlimit="10" stroke-linecap="round" stroke-linejoin="round"/>
<path d="M37.5713 71.2224H40.5628" stroke="#334DA6" stroke-miterlimit="10" stroke-linecap="round" stroke-linejoin="round"/>
<path d="M48.1863 64.5299H49.8715" stroke="#334DA6" stroke-miterlimit="10" stroke-linecap="round" stroke-linejoin="round"/>
<path d="M48.1863 66.5363H49.8715" stroke="#334DA6" stroke-miterlimit="10" stroke-linecap="round" stroke-linejoin="round"/>
<path d="M48.1863 68.5426H49.8715" stroke="#334DA6" stroke-miterlimit="10" stroke-linecap="round" stroke-linejoin="round"/>
<path d="M48.1863 70.5489H49.8715" stroke="#334DA6" stroke-miterlimit="10" stroke-linecap="round" stroke-linejoin="round"/>
<path d="M13.0024 64.5299H14.6876" stroke="#334DA6" stroke-miterlimit="10" stroke-linecap="round" stroke-linejoin="round"/>
<path d="M13.0024 66.5363H14.6876" stroke="#334DA6" stroke-miterlimit="10" stroke-linecap="round" stroke-linejoin="round"/>
<path d="M13.0024 68.5426H14.6876" stroke="#334DA6" stroke-miterlimit="10" stroke-linecap="round" stroke-linejoin="round"/>
<path d="M13.0024 70.5489H14.6876" stroke="#334DA6" stroke-miterlimit="10" stroke-linecap="round" stroke-linejoin="round"/>
<path d="M3 57H22" stroke="#334DA6" stroke-miterlimit="10" stroke-linecap="round" stroke-linejoin="round"/>
<path d="M42 57L62 57" stroke="#334DA6" stroke-miterlimit="10" stroke-linecap="round" stroke-linejoin="round"/>
<path d="M48.1862 63.5445H44.1895V71.2224H48.1862V63.5445Z" stroke="#334DA6" stroke-miterlimit="10" stroke-linecap="round" stroke-linejoin="round"/>
<path d="M18.6843 63.5445H14.6875V71.2224H18.6843V63.5445Z" stroke="#334DA6" stroke-miterlimit="10" stroke-linecap="round" stroke-linejoin="round"/>
<path d="M31.9998 47.655C44.5884 47.655 54.7935 37.4348 54.7935 24.8275C54.7935 12.2202 44.5884 2 31.9998 2C19.4111 2 9.20605 12.2202 9.20605 24.8275C9.20605 37.4348 19.4111 47.655 31.9998 47.655Z" stroke="#334DA6" stroke-width="2" stroke-miterlimit="10" stroke-linecap="round" stroke-linejoin="round"/>
<path d="M31.9999 42.403C41.6922 42.403 49.5493 34.5342 49.5493 24.8275C49.5493 15.1208 41.6922 7.25201 31.9999 7.25201C22.3076 7.25201 14.4504 15.1208 14.4504 24.8275C14.4504 34.5342 22.3076 42.403 31.9999 42.403Z" stroke="#334DA6" stroke-miterlimit="10" stroke-linecap="round" stroke-linejoin="round"/>
<path d="M42.8884 24.8275C42.8884 18.8113 38.0196 13.9232 32.0002 13.9232C25.9809 13.9232 21.1121 18.7992 21.1121 24.8275C21.1121 28.624 23.062 31.9717 26.0051 33.9245C26.0051 33.9609 25.993 33.9973 25.993 34.0458C25.993 35.3558 27.0588 36.4232 28.3668 36.4232H35.6337C36.9417 36.4232 38.0075 35.3558 38.0075 34.0458C38.0075 34.0094 37.9954 33.9609 37.9954 33.9245C40.9506 31.9717 42.8884 28.624 42.8884 24.8275Z" stroke="#334DA6" stroke-width="2" stroke-miterlimit="10" stroke-linecap="round" stroke-linejoin="round"/>
<path d="M32.0003 11.6467C32.711 11.6467 33.2871 11.0706 33.2871 10.36C33.2871 9.64932 32.711 9.07324 32.0003 9.07324C31.2897 9.07324 30.7136 9.64932 30.7136 10.36C30.7136 11.0706 31.2897 11.6467 32.0003 11.6467Z" stroke="#334DA6" stroke-miterlimit="10"/>
<path d="M42.0001 36.8121C42.7107 36.8121 43.2868 36.2361 43.2868 35.5254C43.2868 34.8148 42.7107 34.2387 42.0001 34.2387C41.2895 34.2387 40.7134 34.8148 40.7134 35.5254C40.7134 36.2361 41.2895 36.8121 42.0001 36.8121Z" stroke="#334DA6" stroke-miterlimit="10"/>
<path d="M22.0001 36.8121C22.7107 36.8121 23.2868 36.2361 23.2868 35.5254C23.2868 34.8148 22.7107 34.2387 22.0001 34.2387C21.2895 34.2387 20.7134 34.8148 20.7134 35.5254C20.7134 36.2361 21.2895 36.8121 22.0001 36.8121Z" stroke="#334DA6" stroke-miterlimit="10"/>
</svg>
