<svg width="80" height="70" viewBox="0 0 80 70" fill="none" xmlns="http://www.w3.org/2000/svg">
<rect x="2" y="10" width="5" height="45" fill="#D3D8E8"/>
<rect x="8" y="55" width="4" height="4" fill="#D3D8E8"/>
<rect x="34" y="55" width="3" height="4" fill="#D3D8E8"/>
<rect x="65" y="19" width="2" height="5" fill="#D3D8E8"/>
<path d="M11.48 20.1367C11.48 19.5844 11.9277 19.1367 12.48 19.1367H13.8183V29.1033H12.48C11.9277 29.1033 11.48 28.6556 11.48 28.1033V20.1367Z" fill="#D3D8E8"/>
<path d="M11.48 35.5167C11.48 34.9644 11.9277 34.5167 12.48 34.5167H13.8183V44.4834H12.48C11.9277 44.4834 11.48 44.0356 11.48 43.4834V35.5167Z" fill="#D3D8E8"/>
<rect x="65" y="30" width="2" height="5" fill="#D3D8E8"/>
<rect x="65" y="40" width="2" height="5" fill="#D3D8E8"/>
<rect x="31" y="22" width="5" height="19" fill="#D3D8E8"/>
<rect x="6" y="10" width="71" height="3" fill="#D3D8E8"/>
<path d="M77.21 10H2V55.15H8.3V58.59H29.8V55.15H34.08V58.59H70.79V55.15H77.21V10Z" stroke="#334DA6" stroke-width="2" stroke-miterlimit="10" stroke-linecap="round" stroke-linejoin="round"/>
<path d="M11.8 58.59V54.97" stroke="#334DA6" stroke-miterlimit="10" stroke-linecap="round" stroke-linejoin="round"/>
<path d="M14.8 58.59V54.97" stroke="#334DA6" stroke-miterlimit="10" stroke-linecap="round" stroke-linejoin="round"/>
<path d="M17.8 58.59V54.97" stroke="#334DA6" stroke-miterlimit="10" stroke-linecap="round" stroke-linejoin="round"/>
<path d="M20.8 58.59V54.97" stroke="#334DA6" stroke-miterlimit="10" stroke-linecap="round" stroke-linejoin="round"/>
<path d="M23.8 58.59V54.97" stroke="#334DA6" stroke-miterlimit="10" stroke-linecap="round" stroke-linejoin="round"/>
<path d="M26.8 58.59V54.97" stroke="#334DA6" stroke-miterlimit="10" stroke-linecap="round" stroke-linejoin="round"/>
<path d="M37.4399 58.59V54.97" stroke="#334DA6" stroke-miterlimit="10" stroke-linecap="round" stroke-linejoin="round"/>
<path d="M40.4399 58.59V54.97" stroke="#334DA6" stroke-miterlimit="10" stroke-linecap="round" stroke-linejoin="round"/>
<path d="M43.4399 58.59V54.97" stroke="#334DA6" stroke-miterlimit="10" stroke-linecap="round" stroke-linejoin="round"/>
<path d="M46.4399 58.59V54.97" stroke="#334DA6" stroke-miterlimit="10" stroke-linecap="round" stroke-linejoin="round"/>
<path d="M49.4399 58.59V54.97" stroke="#334DA6" stroke-miterlimit="10" stroke-linecap="round" stroke-linejoin="round"/>
<path d="M52.4399 58.59V54.97" stroke="#334DA6" stroke-miterlimit="10" stroke-linecap="round" stroke-linejoin="round"/>
<path d="M34.4399 44.99V41.37" stroke="#334DA6" stroke-miterlimit="10" stroke-linecap="round" stroke-linejoin="round"/>
<path d="M37.4399 44.99V41.37" stroke="#334DA6" stroke-miterlimit="10" stroke-linecap="round" stroke-linejoin="round"/>
<path d="M40.4399 44.99V41.37" stroke="#334DA6" stroke-miterlimit="10" stroke-linecap="round" stroke-linejoin="round"/>
<path d="M43.4399 44.99V41.37" stroke="#334DA6" stroke-miterlimit="10" stroke-linecap="round" stroke-linejoin="round"/>
<path d="M46.4399 44.99V41.37" stroke="#334DA6" stroke-miterlimit="10" stroke-linecap="round" stroke-linejoin="round"/>
<path d="M34.4399 21.64V18.02" stroke="#334DA6" stroke-miterlimit="10" stroke-linecap="round" stroke-linejoin="round"/>
<path d="M37.4399 21.64V18.02" stroke="#334DA6" stroke-miterlimit="10" stroke-linecap="round" stroke-linejoin="round"/>
<path d="M40.4399 21.64V18.02" stroke="#334DA6" stroke-miterlimit="10" stroke-linecap="round" stroke-linejoin="round"/>
<path d="M43.4399 21.64V18.02" stroke="#334DA6" stroke-miterlimit="10" stroke-linecap="round" stroke-linejoin="round"/>
<path d="M46.4399 21.64V18.02" stroke="#334DA6" stroke-miterlimit="10" stroke-linecap="round" stroke-linejoin="round"/>
<path d="M26.9502 25.5H30.5702" stroke="#334DA6" stroke-miterlimit="10" stroke-linecap="round" stroke-linejoin="round"/>
<path d="M26.9502 28.5H30.5702" stroke="#334DA6" stroke-miterlimit="10" stroke-linecap="round" stroke-linejoin="round"/>
<path d="M26.9502 31.5H30.5702" stroke="#334DA6" stroke-miterlimit="10" stroke-linecap="round" stroke-linejoin="round"/>
<path d="M26.9502 34.5H30.5702" stroke="#334DA6" stroke-miterlimit="10" stroke-linecap="round" stroke-linejoin="round"/>
<path d="M26.9502 37.5H30.5702" stroke="#334DA6" stroke-miterlimit="10" stroke-linecap="round" stroke-linejoin="round"/>
<path d="M50.3 25.5H53.92" stroke="#334DA6" stroke-miterlimit="10" stroke-linecap="round" stroke-linejoin="round"/>
<path d="M50.3 28.5H53.92" stroke="#334DA6" stroke-miterlimit="10" stroke-linecap="round" stroke-linejoin="round"/>
<path d="M50.3 31.5H53.92" stroke="#334DA6" stroke-miterlimit="10" stroke-linecap="round" stroke-linejoin="round"/>
<path d="M50.3 34.5H53.92" stroke="#334DA6" stroke-miterlimit="10" stroke-linecap="round" stroke-linejoin="round"/>
<path d="M50.3 37.5H53.92" stroke="#334DA6" stroke-miterlimit="10" stroke-linecap="round" stroke-linejoin="round"/>
<path d="M55.4399 58.59V54.97" stroke="#334DA6" stroke-miterlimit="10" stroke-linecap="round" stroke-linejoin="round"/>
<path d="M58.4399 58.59V54.97" stroke="#334DA6" stroke-miterlimit="10" stroke-linecap="round" stroke-linejoin="round"/>
<path d="M61.4399 58.59V54.97" stroke="#334DA6" stroke-miterlimit="10" stroke-linecap="round" stroke-linejoin="round"/>
<path d="M64.4399 58.59V54.97" stroke="#334DA6" stroke-miterlimit="10" stroke-linecap="round" stroke-linejoin="round"/>
<path d="M67.4399 58.59V54.97" stroke="#334DA6" stroke-miterlimit="10" stroke-linecap="round" stroke-linejoin="round"/>
<path d="M50.2901 21.64H30.5701V41.36H50.2901V21.64Z" stroke="#334DA6" stroke-width="2" stroke-miterlimit="10" stroke-linecap="round" stroke-linejoin="round"/>
<path d="M13.8 29.23C12.52 29.23 11.48 28.19 11.48 26.91V21.33C11.48 20.05 12.52 19.01 13.8 19.01C15.08 19.01 16.12 20.05 16.12 21.33V26.91C16.12 28.19 15.08 29.23 13.8 29.23Z" stroke="#334DA6" stroke-miterlimit="10" stroke-linecap="round" stroke-linejoin="round"/>
<path d="M69.7501 19.01H65.1201V24.12H69.7501V19.01Z" stroke="#334DA6" stroke-miterlimit="10" stroke-linecap="round" stroke-linejoin="round"/>
<path d="M69.7501 40.07H65.1201V45.18H69.7501V40.07Z" stroke="#334DA6" stroke-miterlimit="10" stroke-linecap="round" stroke-linejoin="round"/>
<path d="M69.7501 29.54H65.1201V34.65H69.7501V29.54Z" stroke="#334DA6" stroke-miterlimit="10" stroke-linecap="round" stroke-linejoin="round"/>
<path d="M13.8 44.61C12.52 44.61 11.48 43.57 11.48 42.29V36.71C11.48 35.43 12.52 34.39 13.8 34.39C15.08 34.39 16.12 35.43 16.12 36.71V42.29C16.12 43.58 15.08 44.61 13.8 44.61Z" stroke="#334DA6" stroke-miterlimit="10" stroke-linecap="round" stroke-linejoin="round"/>
</svg>
