<svg width="87" height="90" viewBox="0 0 87 90" fill="none" xmlns="http://www.w3.org/2000/svg">
<path d="M20.1331 20.0351H24.7913L17.642 29.2821L24.7913 42.7394H20.1331L12.9838 29.2821L20.1331 20.0351Z" fill="#D3D8E8"/>
<path d="M28.5 43L31.6888 43C31.6888 43 31.5 39.5 32.5 37C33.5 34.5 37 32 37 32C37 32 32.6473 32 30.6888 35.2938C28.7303 38.5876 28.5 43 28.5 43Z" fill="#D3D8E8"/>
<rect x="4.1123" y="3.31421" width="4.65825" height="8.82245" fill="#D3D8E8"/>
<rect x="21.8252" y="43.4629" width="4.65825" height="10.5192" fill="#D3D8E8"/>
<rect x="29.5806" y="48.7226" width="2.79621" height="5.25955" fill="#D3D8E8"/>
<rect x="36.1558" y="48.7226" width="2.79621" height="5.25955" fill="#D3D8E8"/>
<rect x="42.7312" y="48.7226" width="2.79622" height="5.25955" fill="#D3D8E8"/>
<rect x="26.4834" y="53.9821" width="4.65825" height="10.5192" fill="#D3D8E8"/>
<path d="M30.5459 65.6467H33.9307V84.5311L30.5459 80.8644V65.6467Z" fill="#D3D8E8"/>
<path d="M12.5791 12.1853H17.2374L20.5705 20.0351H15.9123L12.5791 12.1853Z" fill="#D3D8E8"/>
<g clip-path="url(#clip0_188:48)">
<path d="M3.33252 3.31421V12.5091H12.6754L15.7968 19.8736H56.5151L59.6365 12.5091H68.9794V3.31421H3.33252Z" stroke="#334DA6" stroke-width="2" stroke-miterlimit="10" stroke-linecap="round" stroke-linejoin="round"/>
<path d="M51.8382 19.8736H20.4735L12.6753 29.1643L20.4735 43.4675H21.8251V54.3652H26.2337V65.2735H46.078V54.3652H50.4866V43.4675H51.8382L59.6364 29.1643L51.8382 19.8736Z" stroke="#334DA6" stroke-width="2" stroke-miterlimit="10" stroke-linecap="round" stroke-linejoin="round"/>
<path d="M21.8252 43.0844H28.7117V39.8385C28.7117 35.7625 32.0477 32.4528 36.156 32.4528C40.2642 32.4528 43.6002 35.7625 43.6002 39.8385V43.0844H50.4867" stroke="#334DA6" stroke-width="1.3" stroke-miterlimit="10" stroke-linecap="round" stroke-linejoin="round"/>
<path d="M26.2339 53.9821H46.0781" stroke="#334DA6" stroke-width="1.3" stroke-miterlimit="10" stroke-linecap="round" stroke-linejoin="round"/>
<path d="M11.4312 12.1367H59.6366" stroke="#334DA6" stroke-width="1.3" stroke-miterlimit="10" stroke-linecap="round" stroke-linejoin="round"/>
<path d="M36.156 49.1505V53.1945" stroke="#334DA6" stroke-miterlimit="10" stroke-linecap="round" stroke-linejoin="round"/>
<path d="M42.7314 49.1505V53.1945" stroke="#334DA6" stroke-miterlimit="10" stroke-linecap="round" stroke-linejoin="round"/>
<path d="M29.5806 49.1505V53.1945" stroke="#334DA6" stroke-miterlimit="10" stroke-linecap="round" stroke-linejoin="round"/>
<path d="M36.156 15.8295V19.8736" stroke="#334DA6" stroke-miterlimit="10" stroke-linecap="round" stroke-linejoin="round"/>
<path d="M22.1577 48.7225H50.4866" stroke="#334DA6" stroke-miterlimit="10" stroke-linecap="round" stroke-linejoin="round"/>
<path d="M16.9436 23.8056L54.7182 23.8056" stroke="#334DA6" stroke-miterlimit="10" stroke-linecap="round" stroke-linejoin="round"/>
<path d="M26.2336 61.8366L46.0781 61.8366" stroke="#334DA6" stroke-miterlimit="10" stroke-linecap="round" stroke-linejoin="round"/>
<path d="M42.7314 15.8295V19.8736" stroke="#334DA6" stroke-miterlimit="10" stroke-linecap="round" stroke-linejoin="round"/>
<path d="M29.5806 15.8295V19.8736" stroke="#334DA6" stroke-miterlimit="10" stroke-linecap="round" stroke-linejoin="round"/>
<path d="M41.7659 80.8644L36.1559 87.0582L30.5459 80.8644V65.2735H41.7659V80.8644Z" stroke="#334DA6" stroke-width="1.3" stroke-miterlimit="10" stroke-linecap="round" stroke-linejoin="round"/>
<path d="M30.5459 69.0409L41.7659 80.8645" stroke="#334DA6" stroke-miterlimit="10" stroke-linecap="round" stroke-linejoin="round"/>
<path d="M41.7659 74.8235L32.7041 65.2743" stroke="#334DA6" stroke-miterlimit="10" stroke-linecap="round" stroke-linejoin="round"/>
<path d="M30.5459 74.9526L38.9995 83.8609" stroke="#334DA6" stroke-miterlimit="10" stroke-linecap="round" stroke-linejoin="round"/>
<path d="M48.7814 32.9802C50.0373 32.9802 51.0554 31.9701 51.0554 30.7241C51.0554 29.478 50.0373 28.4679 48.7814 28.4679C47.5254 28.4679 46.5073 29.478 46.5073 30.7241C46.5073 31.9701 47.5254 32.9802 48.7814 32.9802Z" stroke="#334DA6" stroke-miterlimit="10"/>
<path d="M23.5309 32.9802C24.7868 32.9802 25.8049 31.9701 25.8049 30.7241C25.8049 29.478 24.7868 28.4679 23.5309 28.4679C22.275 28.4679 21.2568 29.478 21.2568 30.7241C21.2568 31.9701 22.275 32.9802 23.5309 32.9802Z" stroke="#334DA6" stroke-miterlimit="10"/>
</g>
<defs>
<clipPath id="clip0_188:48">
<rect width="67.7922" height="85.5" fill="white" transform="translate(2.25977 2.25)"/>
</clipPath>
</defs>
</svg>
