<svg width="90" height="84" viewBox="0 0 90 84" fill="none" xmlns="http://www.w3.org/2000/svg">
<path d="M8.43144 28.6219V17.4016H10.8387V42.0516H6.02417V29.7266L8.43144 28.6219Z" fill="#D3D8E8"/>
<rect x="2.3999" y="43.1481" width="4.26728" height="15.4858" fill="#D3D8E8"/>
<path d="M11.9513 47.174C9.97938 48.3358 9.96425 51.6361 11.9513 53.0205C7.19755 52.2512 7.19755 47.6355 11.9513 47.174Z" fill="#D3D8E8"/>
<path d="M23.5868 47.174C21.6149 48.3358 21.5997 51.6361 23.5868 53.0205C18.8331 52.2512 18.833 47.6355 23.5868 47.174Z" fill="#D3D8E8"/>
<path d="M35.2223 47.174C33.2504 48.3358 33.2352 51.6361 35.2223 53.0205C30.4685 52.2512 30.4685 47.6355 35.2223 47.174Z" fill="#D3D8E8"/>
<rect x="7.09741" y="57.7302" width="77.9186" height="3.18134" fill="#D3D8E8"/>
<path d="M4.53338 57.7302H9.23112V73.672L5.09903 80.3418H1.49609L4.53338 72.8529V57.7302Z" fill="#D3D8E8"/>
<rect x="36.0796" y="17.9095" width="2.41967" height="12.2935" fill="#D3D8E8"/>
<rect x="33.9417" y="6.70569" width="2.84899" height="11.2038" fill="#D3D8E8"/>
<rect x="76.1064" y="18.258" width="3.08011" height="23.8901" fill="#D3D8E8"/>
<path d="M87.7446 58.0952V42.0993H2V58.0952H4.77403V71.8529L2 76.3777V80.9024H18.8561L22.7089 76.3777H67.026L70.8789 80.9024H87.7446V76.3777L84.9706 71.8529V58.0952H87.7446Z" stroke="#334DA6" stroke-width="2" stroke-miterlimit="10" stroke-linecap="round" stroke-linejoin="round"/>
<path d="M8.64632 17.2563V28.7275L5.85303 30.657V35.6835V42.0992H8.64632H11.43H14.2233V17.2563H8.64632Z" stroke="#334DA6" stroke-width="2" stroke-miterlimit="10" stroke-linecap="round" stroke-linejoin="round"/>
<path d="M5.85303 35.6836H9.18572" stroke="#334DA6" stroke-miterlimit="10" stroke-linecap="round" stroke-linejoin="round"/>
<path d="M81.0987 17.2563V28.7275L83.892 30.657V35.6835V42.0992H81.0987H78.315H75.5217V17.2563H81.0987Z" stroke="#334DA6" stroke-width="2" stroke-miterlimit="10" stroke-linecap="round" stroke-linejoin="round"/>
<path d="M83.892 35.6836H80.5593" stroke="#334DA6" stroke-miterlimit="10" stroke-linecap="round" stroke-linejoin="round"/>
<path d="M35.1729 24.6176H14.2231V17.7144H75.5216V24.6176H45.8356" stroke="#334DA6" stroke-miterlimit="10" stroke-linecap="round" stroke-linejoin="round"/>
<path d="M44.3619 5.93964H36.7237C34.595 5.93964 32.8708 7.66658 32.8708 9.79872V18.2308H35.3174V26.6629C35.3174 28.7951 37.0415 30.522 39.1702 30.522H41.9154C44.044 30.522 45.7682 28.7951 45.7682 26.6629V18.2308H48.2147V9.78908C48.2051 7.66658 46.481 5.93964 44.3619 5.93964Z" stroke="#334DA6" stroke-width="2" stroke-miterlimit="10" stroke-linecap="round" stroke-linejoin="round"/>
<path d="M75.5216 17.2564V13.2719H48.2051" stroke="#334DA6" stroke-miterlimit="10" stroke-linecap="round" stroke-linejoin="round"/>
<path d="M32.8707 13.2719H26.1475C22.7666 13.2719 20.0215 10.5223 20.0215 7.13595C20.0215 3.7496 22.7666 1 26.1475 1H40.5378V5.92999" stroke="#334DA6" stroke-miterlimit="10" stroke-linecap="round" stroke-linejoin="round"/>
<path d="M40.5381 30.5027V34.4776" stroke="#334DA6" stroke-width="2" stroke-miterlimit="10" stroke-linecap="round" stroke-linejoin="round"/>
<path d="M4.77393 57.5852H84.9705" stroke="#334DA6" stroke-miterlimit="10" stroke-linecap="round" stroke-linejoin="round"/>
<path d="M68.4612 50.0973H87.3111" stroke="#334DA6" stroke-miterlimit="10" stroke-linecap="round" stroke-linejoin="round"/>
<path d="M22.815 53.0205C24.4269 53.0205 25.7335 51.7117 25.7335 50.0972C25.7335 48.4827 24.4269 47.174 22.815 47.174C21.2031 47.174 19.8965 48.4827 19.8965 50.0972C19.8965 51.7117 21.2031 53.0205 22.815 53.0205Z" stroke="#334DA6" stroke-miterlimit="10" stroke-linecap="round" stroke-linejoin="round"/>
<path d="M11.3045 53.0205C12.9164 53.0205 14.223 51.7117 14.223 50.0972C14.223 48.4827 12.9164 47.174 11.3045 47.174C9.69265 47.174 8.38599 48.4827 8.38599 50.0972C8.38599 51.7117 9.69265 53.0205 11.3045 53.0205Z" stroke="#334DA6" stroke-miterlimit="10" stroke-linecap="round" stroke-linejoin="round"/>
<path d="M34.3255 53.0205C35.9373 53.0205 37.244 51.7117 37.244 50.0972C37.244 48.4827 35.9373 47.174 34.3255 47.174C32.7136 47.174 31.407 48.4827 31.407 50.0972C31.407 51.7117 32.7136 53.0205 34.3255 53.0205Z" stroke="#334DA6" stroke-miterlimit="10" stroke-linecap="round" stroke-linejoin="round"/>
<path d="M61.1699 69.391C62.6115 69.391 63.7801 68.2204 63.7801 66.7765C63.7801 65.3325 62.6115 64.1619 61.1699 64.1619C59.7282 64.1619 58.5596 65.3325 58.5596 66.7765C58.5596 68.2204 59.7282 69.391 61.1699 69.391Z" stroke="#334DA6" stroke-miterlimit="10" stroke-linecap="round" stroke-linejoin="round"/>
<path d="M62.1523 65.9371L64.0306 64.0558" stroke="#334DA6" stroke-miterlimit="10" stroke-linecap="round" stroke-linejoin="round"/>
<path d="M73.2001 69.391C74.6418 69.391 75.8104 68.2204 75.8104 66.7765C75.8104 65.3325 74.6418 64.1619 73.2001 64.1619C71.7585 64.1619 70.5898 65.3325 70.5898 66.7765C70.5898 68.2204 71.7585 69.391 73.2001 69.391Z" stroke="#334DA6" stroke-miterlimit="10" stroke-linecap="round" stroke-linejoin="round"/>
<path d="M74.1826 65.9371L76.0609 64.0558" stroke="#334DA6" stroke-miterlimit="10" stroke-linecap="round" stroke-linejoin="round"/>
<path d="M65.8896 41.9063V39.726" stroke="#334DA6" stroke-miterlimit="10" stroke-linecap="round" stroke-linejoin="round"/>
<path d="M37.8699 41.9064V39.726" stroke="#334DA6" stroke-miterlimit="10" stroke-linecap="round" stroke-linejoin="round"/>
<path d="M51.875 41.9064V39.726" stroke="#334DA6" stroke-miterlimit="10" stroke-linecap="round" stroke-linejoin="round"/>
<path d="M38.4575 9.57678H42.6186" stroke="#334DA6" stroke-miterlimit="10" stroke-linecap="round" stroke-linejoin="round"/>
<path d="M38.4575 11.4196H42.6186" stroke="#334DA6" stroke-miterlimit="10" stroke-linecap="round" stroke-linejoin="round"/>
<path d="M38.4575 13.2719H42.6186" stroke="#334DA6" stroke-miterlimit="10" stroke-linecap="round" stroke-linejoin="round"/>
<path d="M23.8552 41.9063V39.726" stroke="#334DA6" stroke-miterlimit="10" stroke-linecap="round" stroke-linejoin="round"/>
<path d="M13.1541 68.5902V63.4866" stroke="#334DA6" stroke-miterlimit="10" stroke-linecap="round" stroke-linejoin="round"/>
<path d="M16.1785 68.5902V63.4866" stroke="#334DA6" stroke-miterlimit="10" stroke-linecap="round" stroke-linejoin="round"/>
<path d="M19.2031 68.5902V63.4866" stroke="#334DA6" stroke-miterlimit="10" stroke-linecap="round" stroke-linejoin="round"/>
<path d="M22.2273 68.5902V63.4866" stroke="#334DA6" stroke-miterlimit="10" stroke-linecap="round" stroke-linejoin="round"/>
<path d="M25.2517 68.5902V63.4866" stroke="#334DA6" stroke-miterlimit="10" stroke-linecap="round" stroke-linejoin="round"/>
<path d="M28.2764 68.5902V63.4866" stroke="#334DA6" stroke-miterlimit="10" stroke-linecap="round" stroke-linejoin="round"/>
<path d="M31.3008 68.5902V63.4866" stroke="#334DA6" stroke-miterlimit="10" stroke-linecap="round" stroke-linejoin="round"/>
<path d="M34.3252 68.5902V63.4866" stroke="#334DA6" stroke-miterlimit="10" stroke-linecap="round" stroke-linejoin="round"/>
<path d="M40.5379 20.8402C39.6807 20.8402 38.9775 20.1456 38.9775 19.2773V17.7144H42.0983V19.2773C42.0983 20.1359 41.3952 20.8402 40.5379 20.8402Z" stroke="#334DA6" stroke-miterlimit="10" stroke-linecap="round" stroke-linejoin="round"/>
</svg>
