<svg width="90" height="72" viewBox="0 0 90 72" fill="none" xmlns="http://www.w3.org/2000/svg">
<rect x="3.12305" y="15.3415" width="3.48558" height="16.7464" fill="#D3D8E8"/>
<rect x="31.8176" y="4.44098" width="2.36589" height="38.4423" fill="#D3D8E8"/>
<rect x="36.9307" y="7.54736" width="2.36589" height="12.0008" fill="#D3D8E8"/>
<rect x="36.9307" y="28.1802" width="2.36589" height="12.0008" fill="#D3D8E8"/>
<rect x="46.012" y="6.198" width="3.40604" height="34.9371" fill="#D3D8E8"/>
<rect x="63.8879" y="11.1362" width="3.40602" height="25.6828" fill="#D3D8E8"/>
<rect x="77.1145" y="14.5709" width="2.67687" height="6.55891" fill="#D3D8E8"/>
<rect x="77.1145" y="26.9069" width="2.67687" height="6.55891" fill="#D3D8E8"/>
<rect x="84.7188" y="14.9572" width="2.67687" height="17.8531" fill="#D3D8E8"/>
<path d="M58.7335 6.12653H46.2045L45.0795 4.25H40.9511V7.54733H37.0551V4.25H30.7554V10.2728L2.25 15.956V31.5579L30.7554 37.2322V43.4784H37.0551V40.181H40.9511V43.4784H45.0795L46.2045 41.6018H58.7335L63.3801 36.6514V11.077L58.7335 6.12653Z" stroke="#334DA6" stroke-width="2" stroke-miterlimit="10" stroke-linecap="round" stroke-linejoin="round"/>
<path d="M84.8351 14.2671V7.8869H79.2859V11.1485H63.3801V36.5799H79.2859V39.8415H84.8351V33.4702H88.2128V14.2671H84.8351Z" stroke="#334DA6" stroke-width="2" stroke-miterlimit="10" stroke-linecap="round" stroke-linejoin="round"/>
<path d="M31.3032 10.4164V37.3848" stroke="#334DA6" stroke-miterlimit="10" stroke-linecap="round" stroke-linejoin="round"/>
<path d="M36.4917 19.5482V7.54736" stroke="#334DA6" stroke-miterlimit="10" stroke-linecap="round" stroke-linejoin="round"/>
<path d="M36.4917 40.4433V28.4424" stroke="#334DA6" stroke-miterlimit="10" stroke-linecap="round" stroke-linejoin="round"/>
<path d="M41.5034 20.3792V7.54736" stroke="#334DA6" stroke-miterlimit="10" stroke-linecap="round" stroke-linejoin="round"/>
<path d="M46.012 41.8878V6.198" stroke="#334DA6" stroke-miterlimit="10" stroke-linecap="round" stroke-linejoin="round"/>
<path d="M58.7156 41.6018V6.198" stroke="#334DA6" stroke-miterlimit="10" stroke-linecap="round" stroke-linejoin="round"/>
<path d="M84.2905 33.4658V14.2626" stroke="#334DA6" stroke-miterlimit="10" stroke-linecap="round" stroke-linejoin="round"/>
<path d="M41.5034 40.1811V27.3492" stroke="#334DA6" stroke-miterlimit="10" stroke-linecap="round" stroke-linejoin="round"/>
<path d="M38.9169 28.2165H31.3125V19.5934H38.9169C41.3028 19.5934 43.2329 21.5236 43.2329 23.9095C43.224 26.2864 41.2938 28.2165 38.9169 28.2165Z" stroke="#334DA6" stroke-miterlimit="10" stroke-linecap="round" stroke-linejoin="round"/>
<path d="M81.4484 14.5709H77.1145V21.1298H81.4484V14.5709Z" stroke="#334DA6" stroke-miterlimit="10" stroke-linecap="round" stroke-linejoin="round"/>
<path d="M77.0698 19.6197H71.1922C70.4706 19.6197 69.8933 18.8244 69.8933 17.8504C69.8933 16.8674 70.4771 16.0811 71.1922 16.0811H77.0698V19.6197V19.6197Z" stroke="#334DA6" stroke-miterlimit="10" stroke-linecap="round" stroke-linejoin="round"/>
<path d="M81.4484 26.5985H77.1145V33.1574H81.4484V26.5985Z" stroke="#334DA6" stroke-miterlimit="10" stroke-linecap="round" stroke-linejoin="round"/>
<path d="M77.0698 31.6474H71.1922C70.4706 31.6474 69.8933 30.8521 69.8933 29.8781C69.8933 28.8951 70.4771 28.1088 71.1922 28.1088H77.0698V31.6474V31.6474Z" stroke="#334DA6" stroke-miterlimit="10" stroke-linecap="round" stroke-linejoin="round"/>
</svg>
