<svg width="83" height="86" viewBox="0 0 83 86" fill="none" xmlns="http://www.w3.org/2000/svg">
<rect x="3.04956" y="2.77759" width="3.33972" height="57.0134" fill="#D3D8E8"/>
<rect x="10.3962" y="11.0704" width="3.14867" height="26.9518" fill="#D3D8E8"/>
<rect x="42.2393" y="11.0704" width="3.14867" height="15.4033" fill="#D3D8E8"/>
<path d="M73.0396 60.05H4.42933C3.08952 60.05 2 59.0308 2 57.7604V4.30357C2 3.03312 3.08952 2 4.42933 2H73.0396C74.3794 2 75.4689 3.03312 75.4689 4.30357V57.7604C75.4689 59.0308 74.3794 60.05 73.0396 60.05Z" stroke="#334DA6" stroke-width="2" stroke-miterlimit="10" stroke-linecap="round" stroke-linejoin="round"/>
<path d="M36.0551 10.9211H10.2158V38.5361H36.0551V10.9211Z" stroke="#334DA6" stroke-width="2" stroke-miterlimit="10" stroke-linecap="round" stroke-linejoin="round"/>
<path d="M68.0788 10.9211H42.2395V26.4737H68.0788V10.9211Z" stroke="#334DA6" stroke-miterlimit="10" stroke-linecap="round" stroke-linejoin="round"/>
<path d="M45.2134 19.3815H52.8547L54.651 14.3136L55.6669 23.8909L57.36 19.3815H64.7953" stroke="#334DA6" stroke-miterlimit="10" stroke-linecap="round" stroke-linejoin="round"/>
<path d="M2 45.7539H75.4689" stroke="#334DA6" stroke-width="2" stroke-miterlimit="10" stroke-linecap="round" stroke-linejoin="round"/>
<path d="M10.2158 54.7029H15.3837" stroke="#334DA6" stroke-miterlimit="10" stroke-linecap="round" stroke-linejoin="round"/>
<path d="M62.7622 54.7029H67.9153" stroke="#334DA6" stroke-miterlimit="10" stroke-linecap="round" stroke-linejoin="round"/>
<path d="M49.6309 54.7029H54.784" stroke="#334DA6" stroke-miterlimit="10" stroke-linecap="round" stroke-linejoin="round"/>
<path d="M36.4971 54.7029H41.6502" stroke="#334DA6" stroke-miterlimit="10" stroke-linecap="round" stroke-linejoin="round"/>
<path d="M2 49.5723L75.4687 49.5723" stroke="#334DA6" stroke-miterlimit="10" stroke-linecap="round" stroke-linejoin="round"/>
<path d="M10.2158 34.285L36.0551 34.285" stroke="#334DA6" stroke-miterlimit="10" stroke-linecap="round" stroke-linejoin="round"/>
<path d="M23.3491 54.7029H28.517" stroke="#334DA6" stroke-miterlimit="10" stroke-linecap="round" stroke-linejoin="round"/>
<path d="M45.2131 38.2848C46.937 38.2848 48.3344 36.9597 48.3344 35.3251C48.3344 33.6905 46.937 32.3654 45.2131 32.3654C43.4893 32.3654 42.0918 33.6905 42.0918 35.3251C42.0918 36.9597 43.4893 38.2848 45.2131 38.2848Z" stroke="#334DA6" stroke-miterlimit="10"/>
<path d="M45.2134 35.3251L47.4071 33.2449" stroke="#334DA6" stroke-miterlimit="10" stroke-linecap="round" stroke-linejoin="round"/>
<path d="M55.0036 38.2848C56.7275 38.2848 58.125 36.9597 58.125 35.3251C58.125 33.6905 56.7275 32.3654 55.0036 32.3654C53.2798 32.3654 51.8823 33.6905 51.8823 35.3251C51.8823 36.9597 53.2798 38.2848 55.0036 38.2848Z" stroke="#334DA6" stroke-miterlimit="10"/>
<path d="M55.0039 35.3251L57.2124 33.2449" stroke="#334DA6" stroke-miterlimit="10" stroke-linecap="round" stroke-linejoin="round"/>
<path d="M64.7942 38.2848C66.518 38.2848 67.9155 36.9597 67.9155 35.3251C67.9155 33.6905 66.518 32.3654 64.7942 32.3654C63.0703 32.3654 61.6729 33.6905 61.6729 35.3251C61.6729 36.9597 63.0703 38.2848 64.7942 38.2848Z" stroke="#334DA6" stroke-miterlimit="10"/>
<path d="M64.7944 35.3251L67.0029 33.2449" stroke="#334DA6" stroke-miterlimit="10" stroke-linecap="round" stroke-linejoin="round"/>
</svg>
