<svg width="18" height="18" viewBox="0 0 18 18" fill="none" xmlns="http://www.w3.org/2000/svg">
<path fill-rule="evenodd" clip-rule="evenodd" d="M7.40004 2C10.3824 2 12.8 4.41766 12.8 7.4C12.8 8.9112 12.1806 10.2759 11.1792 11.2572C10.2042 12.2126 8.87173 12.8 7.40004 12.8C4.4177 12.8 2.00004 10.3823 2.00004 7.4C2.00004 4.41766 4.4177 2 7.40004 2ZM14.8 7.4C14.8 3.31309 11.4869 0 7.40004 0C3.31313 0 4.00543e-05 3.31309 4.00543e-05 7.4C4.00543e-05 11.4869 3.31313 14.8 7.40004 14.8C9.06182 14.8 10.5968 14.2513 11.8319 13.3266L16.2994 17.7135L17.7007 16.2865L13.2571 11.9231C14.2238 10.6728 14.8 9.10307 14.8 7.4Z" fill="white"/>
</svg>
