<svg width="87" height="90" viewBox="0 0 87 90" fill="none" xmlns="http://www.w3.org/2000/svg">
<rect x="35.9631" y="9.93515" width="4.15801" height="12.4203" fill="#D3D8E8"/>
<path d="M47.3977 22.3554H51.5557V34.7757L47.3977 30.6356V22.3554Z" fill="#D3D8E8"/>
<rect x="2.69873" y="8.90012" width="4.15801" height="72.4515" fill="#D3D8E8"/>
<path d="M45.7861 69.6214L32.6758 55.8211L36.1259 54.4411L49.9261 68.9314V82.0416H45.7861V69.6214Z" fill="#D3D8E8"/>
<path d="M64.6827 61.813C59.2121 64.2936 59.2121 72.7988 64.6827 75.2795C55.7929 73.5076 55.7929 62.8761 64.6827 61.813Z" fill="#D3D8E8"/>
<path d="M14.7101 9.03815H2V82.0417H44.9327V68.2828L26.4679 49.8042V39.247L35.7693 29.9456V2H20.8512L14.7101 9.03815Z" stroke="#334DA6" stroke-width="2" stroke-miterlimit="10" stroke-linecap="round" stroke-linejoin="round"/>
<path d="M35.7693 9.63156H60.941L66.8613 15.5381V22.4934H35.7693V9.63156Z" stroke="#334DA6" stroke-width="2" stroke-miterlimit="10" stroke-linecap="round" stroke-linejoin="round"/>
<path d="M47.4858 22.4934V30.4286L51.1429 35.9763H56.8286L60.4995 30.4286V22.4934H47.4858Z" stroke="#334DA6" stroke-width="2" stroke-miterlimit="10" stroke-linecap="round" stroke-linejoin="round"/>
<path d="M45.9399 30.2768H62.0311" stroke="#334DA6" stroke-miterlimit="10" stroke-linecap="round" stroke-linejoin="round"/>
<path d="M31.3948 54.7309H64.9295C72.4644 54.7309 78.5779 60.8444 78.5779 68.3793C78.5779 75.9143 72.4644 82.0278 64.9295 82.0278H44.9329" stroke="#334DA6" stroke-width="2" stroke-miterlimit="10"/>
<path d="M64.8879 75.2795C68.6835 75.2795 71.7605 72.1964 71.7605 68.3932C71.7605 64.59 68.6835 61.5068 64.8879 61.5068C61.0923 61.5068 58.0154 64.59 58.0154 68.3932C58.0154 72.1964 61.0923 75.2795 64.8879 75.2795Z" stroke="#334DA6" stroke-miterlimit="10"/>
<path d="M25.1706 70.9048C26.5577 70.9048 27.6822 69.7803 27.6822 68.3932C27.6822 67.006 26.5577 65.8815 25.1706 65.8815C23.7834 65.8815 22.6589 67.006 22.6589 68.3932C22.6589 69.7803 23.7834 70.9048 25.1706 70.9048Z" stroke="#334DA6" stroke-miterlimit="10"/>
<path d="M64.8879 70.9048C66.275 70.9048 67.3995 69.7803 67.3995 68.3932C67.3995 67.006 66.275 65.8815 64.8879 65.8815C63.5007 65.8815 62.3762 67.006 62.3762 68.3932C62.3762 69.7803 63.5007 70.9048 64.8879 70.9048Z" stroke="#334DA6" stroke-miterlimit="10"/>
<path d="M25.1706 18.5741C26.5577 18.5741 27.6822 17.4496 27.6822 16.0625C27.6822 14.6753 26.5577 13.5508 25.1706 13.5508C23.7834 13.5508 22.6589 14.6753 22.6589 16.0625C22.6589 17.4496 23.7834 18.5741 25.1706 18.5741Z" stroke="#334DA6" stroke-miterlimit="10"/>
<path d="M13.5646 70.9048C14.9518 70.9048 16.0763 69.7803 16.0763 68.3932C16.0763 67.006 14.9518 65.8815 13.5646 65.8815C12.1775 65.8815 11.053 67.006 11.053 68.3932C11.053 69.7803 12.1775 70.9048 13.5646 70.9048Z" stroke="#334DA6" stroke-miterlimit="10"/>
<path d="M58.0017 68.3932H44.9329" stroke="#334DA6" stroke-miterlimit="10"/>
<path d="M44.9327 77.2936L2 77.2936" stroke="#334DA6" stroke-miterlimit="10"/>
<path d="M10.9705 28.2481H17.4152" stroke="#334DA6" stroke-miterlimit="10" stroke-linecap="round" stroke-linejoin="round"/>
<path d="M35.7693 16.1453H43.7109" stroke="#334DA6" stroke-miterlimit="10" stroke-linecap="round" stroke-linejoin="round"/>
<path d="M10.9705 32.2088H17.4152" stroke="#334DA6" stroke-miterlimit="10" stroke-linecap="round" stroke-linejoin="round"/>
<path d="M10.9705 36.1557H17.4152" stroke="#334DA6" stroke-miterlimit="10" stroke-linecap="round" stroke-linejoin="round"/>
<path d="M53.9858 42.3244C52.5782 42.3244 51.4465 41.1928 51.4465 39.7852V38.833H56.525V39.7852C56.525 41.1928 55.3796 42.3244 53.9858 42.3244Z" stroke="#334DA6" stroke-miterlimit="10" stroke-linecap="round" stroke-linejoin="round"/>
</svg>
